<?xml version="1.0" encoding="UTF-8"?>
<svg version="1.1" xmlns="http://www.w3.org/2000/svg" width="222" height="227">
<path d="M0 0 C4.10278862 0.35685466 6.87456084 1.87938063 10.30859375 3.98461914 C11.27333618 4.55900978 11.27333618 4.55900978 12.25756836 5.14500427 C13.61278628 5.9565666 14.96405533 6.77475544 16.31152344 7.59912109 C18.35421404 8.84541419 20.41180194 10.06357784 22.47265625 11.27954102 C37.74905313 20.42709102 37.74905313 20.42709102 40.37109375 28.29321289 C40.47054743 30.22482448 40.51042226 32.15970251 40.51826477 34.09385681 C40.52542007 35.30383835 40.53257538 36.51381989 40.53994751 37.76046753 C40.54278767 39.10333226 40.54549942 40.44619727 40.5480957 41.7890625 C40.55436134 43.2017178 40.56100823 44.61437146 40.56800842 46.02702332 C40.58903276 50.66652278 40.5994067 55.30602253 40.609375 59.94555664 C40.61342264 61.54247111 40.61753956 63.1393854 40.62172508 64.73629951 C40.6407702 72.23595898 40.65500478 79.73560861 40.66333705 87.23528761 C40.67311875 95.89662023 40.69946522 104.55769792 40.73983794 113.21894068 C40.76996796 119.91200415 40.7848028 126.60499438 40.78811806 133.29812437 C40.79047141 137.29678984 40.79946886 141.29518274 40.82457924 145.29377556 C40.84781193 149.05393516 40.85211293 152.81364176 40.84181786 156.57385445 C40.84132126 157.95415374 40.84767809 159.33447499 40.8613739 160.71470642 C40.87901926 162.59825026 40.86962535 164.48198971 40.85884094 166.36558533 C40.8612293 167.41990722 40.86361765 168.47422911 40.86607838 169.56050014 C40.24554615 172.98633649 39.09948765 174.19463021 36.37109375 176.29321289 C30.14884833 176.22210151 24.53313145 171.49272582 19.3605957 168.33911133 C17.45125592 167.1789449 15.53018836 166.04032537 13.60742188 164.90258789 C6.67071129 160.73551534 0.1234558 156.79793699 -3.62890625 149.29321289 C-3.72490783 147.34430604 -3.75521388 145.39205043 -3.75588989 143.44078064 C-3.75870972 142.19418167 -3.76152954 140.9475827 -3.76443481 139.66320801 C-3.76249035 138.27416978 -3.76044217 136.88513169 -3.75830078 135.49609375 C-3.75965518 134.03931128 -3.76143533 132.58252915 -3.76361084 131.12574768 C-3.76818021 127.16310693 -3.76639775 123.20049213 -3.76323175 119.2378509 C-3.76070608 115.09830958 -3.76304623 110.95877053 -3.76461792 106.81922913 C-3.7664388 99.86776326 -3.76403521 92.91630801 -3.75927734 85.96484375 C-3.75383274 77.91686177 -3.75559914 69.86890511 -3.76110375 61.82092375 C-3.76563464 54.92155964 -3.76628561 48.02220319 -3.76366508 41.12283808 C-3.76210245 36.99749083 -3.76190821 32.8721555 -3.76520157 28.74680901 C-3.76808 24.87024303 -3.76610511 20.99370986 -3.76030731 17.11714745 C-3.75897966 15.69045313 -3.75937392 14.26375608 -3.76156998 12.83706284 C-3.76428117 10.89759669 -3.76028693 8.95812455 -3.75588989 7.0186615 C-3.75551287 5.93077804 -3.75513584 4.84289457 -3.75474739 3.72204494 C-3.57899292 0.32984675 -3.38837428 0.37791953 0 0 Z " fill="#6C6D71" transform="translate(94.62890625,2.706787109375)"/>
<path d="M0 0 C3.84273215 0.37317569 6.11587473 1.4973228 9.47412109 3.38720703 C10.3318663 3.86527298 10.3318663 3.86527298 11.2069397 4.35299683 C12.41201773 5.02798429 13.61367437 5.70911274 14.81201172 6.39599609 C16.61880856 7.43079792 18.43568253 8.44559516 20.25537109 9.45751953 C37.50336794 19.13242454 37.50336794 19.13242454 39.26318359 24.19189453 C39.26318359 24.89314453 39.26318359 25.59439453 39.26318359 26.31689453 C33.71552578 31.46339895 27.31091109 34.82662906 20.70068359 38.44189453 C18.46990759 39.67310883 16.23942783 40.90486006 14.00927734 42.13720703 C13.02628662 42.67619629 12.0432959 43.21518555 11.03051758 43.77050781 C9.18518628 44.80167927 7.36342317 45.87619845 5.56811523 46.9921875 C2.84363919 48.55801813 1.3560365 48.80523973 -1.73681641 48.31689453 C-3.75263944 46.75720429 -4.63246534 45.86894462 -5.11103821 43.33714294 C-5.11040878 42.58594681 -5.10977936 41.83475067 -5.10913086 41.06079102 C-5.11535965 40.20658066 -5.12158844 39.3523703 -5.12800598 38.47227478 C-5.11879623 37.55346024 -5.10958649 36.63464569 -5.10009766 35.68798828 C-5.10059616 34.74254654 -5.10109467 33.7971048 -5.10160828 32.82301331 C-5.09926802 30.82493996 -5.08954235 28.82686365 -5.07299805 26.82885742 C-5.0493808 23.76275421 -5.05244051 20.69751884 -5.05908203 17.63134766 C-5.0535062 15.69188932 -5.04639692 13.75243467 -5.03759766 11.81298828 C-5.03850906 10.89214951 -5.03942047 9.97131073 -5.0403595 9.02256775 C-5.03082748 8.17150955 -5.02129547 7.32045135 -5.01147461 6.44360352 C-5.00686722 5.69320297 -5.00225983 4.94280243 -4.99751282 4.16966248 C-4.53572784 0.88775923 -3.12031442 0.36129956 0 0 Z " fill="#3F9338" transform="translate(95.73681640625,176.68310546875)"/>
</svg>
